#N canvas 139 139 755 229 10;
#X obj -3 -44 cnv 15 150 200 empty empty DATA 10 20 0 14 -204800 -66577
0;
#X obj 147 -44 cnv 15 200 200 empty empty VOICE 10 20 0 14 -261234
-1 0;
#X obj -4 -70 cnv 15 752 25 empty empty LINT-PADS 300 12 0 20 -257985
-66577 0;
#X obj 348 -44 cnv 15 200 200 empty empty SPEECH 10 20 0 14 -204786
-1 0;
#X obj 548 -44 cnv 15 200 200 empty empty EXTRAS 10 20 0 14 -232576
-1 0;
#N canvas 322 42 1001 558 LINT-PADS 0;
#N canvas 755 125 944 802 synth 0;
#X obj 250 17 inlet;
#X obj 250 45 unpack 0 0 0 0 0 0 0 0 0 0 0 0;
#X floatatom 60 86 5 0 0 0 - - -;
#X floatatom 116 86 5 0 0 0 - - -;
#X floatatom 172 86 5 0 0 0 - - -;
#X floatatom 228 86 5 0 0 0 - - -;
#X floatatom 286 86 5 0 0 0 - - -;
#X floatatom 340 86 5 0 0 0 - - -;
#X floatatom 395 86 5 0 0 0 - - -;
#X floatatom 452 86 5 0 0 0 - - -;
#X floatatom 504 86 5 0 0 0 - - -;
#X floatatom 565 86 5 0 0 0 - - -;
#X floatatom 621 86 5 0 0 0 - - -;
#X floatatom 681 86 5 0 0 0 - - -;
#X text 70 105 FN;
#X text 126 105 ALF;
#X text 181 105 F1;
#X text 236 105 A1;
#X text 296 105 F2;
#X text 350 105 A2;
#X text 404 105 F3;
#X text 460 105 A3;
#X text 514 105 AHF;
#X text 576 105 V;
#X text 633 105 F0;
#X text 692 105 MS;
#X obj 171 548 +~;
#X obj 513 169 noise~;
#X obj 513 203 *~;
#X obj 358 275 +~;
#X obj 485 392 bp~ 3500 20;
#X obj 210 136 / 50;
#X obj 98 136 / 50;
#X obj 322 136 / 80;
#X obj 437 136 / 150;
#X obj 232 548 +~;
#X obj 192 587 -~;
#X obj 192 763 outlet~;
#X obj 286 136 sig~;
#X obj 248 392 vcf~ 550 20;
#X obj 60 137 sig~;
#X obj 24 392 vcf~ 250 20;
#X obj 172 137 sig~;
#X obj 136 392 vcf~ 125 20;
#X obj 356 393 vcf~ 1350 20;
#X obj 395 137 sig~;
#X obj 622 204 *~;
#N canvas 1483 522 350 432 larynx 0;
#X obj 90 49 inlet;
#X obj 213 49 inlet;
#X obj 91 387 outlet~;
#X text 92 4 PITCH PULSE GENERATOR;
#X text 186 30 Voice Quality;
#X text 39 30 Fundamental Frequency;
#X text 86 406 Audio Out;
#X floatatom 213 81 0 0 100 0 - - -;
#X obj 91 251 -~ 0.5;
#X obj 90 353 cos~;
#X obj 90 150 sig~;
#X obj 91 183 phasor~;
#X floatatom 90 82 5 0 0 0 - - -;
#X obj 90 319 clip~ -0.5 0.5;
#X obj 90 217 sqrt~;
#X obj 91 285 *~;
#X obj 90 115 * -1;
#X text 141 182 <= basic ramp generator;
#X text 129 215 <= make non-linear;
#X text 123 352 <= index cosine wave;
#X connect 0 0 12 0;
#X connect 1 0 7 0;
#X connect 7 0 15 1;
#X connect 8 0 15 0;
#X connect 9 0 2 0;
#X connect 10 0 11 0;
#X connect 11 0 14 0;
#X connect 12 0 16 0;
#X connect 13 0 9 0;
#X connect 14 0 8 0;
#X connect 15 0 13 0;
#X connect 16 0 10 0;
#X restore 621 171 pd larynx;
#X obj 357 461 fexpr~ $x1 - $x1[-1];
#X obj 248 428 fexpr~ $x1 - $x1[-1];
#X obj 249 462 *~ 15;
#X obj 358 495 *~ 5;
#X text 583 392 <= resonators;
#X text 515 462 <= differentiator;
#X text 403 427 <= differentiator;
#X text 44 428 top lift =>;
#X obj 137 428 hip~ 200;
#X obj 24 330 *~;
#X obj 24 361 -~;
#X obj 136 330 *~;
#X obj 247 330 *~;
#X obj 357 330 *~;
#X obj 486 330 *~;
#X obj 565 168 -;
#X text 406 273 <= excitation mixer;
#X text 533 329 <= amplitude controls;
#X obj 192 614 *~ 10;
#X obj 193 644 *~;
#X obj 279 578 sig~;
#X floatatom 536 46 5 0 0 0 - - -;
#N canvas 1330 522 350 432 larynx 0;
#X obj 90 49 inlet;
#X obj 213 49 inlet;
#X obj 91 387 outlet~;
#X text 92 4 PITCH PULSE GENERATOR;
#X text 186 30 Voice Quality;
#X text 39 30 Fundamental Frequency;
#X text 86 406 Audio Out;
#X floatatom 213 81 0 0 100 0 - - -;
#X obj 91 251 -~ 0.5;
#X obj 90 353 cos~;
#X obj 90 150 sig~;
#X obj 91 183 phasor~;
#X floatatom 90 82 5 0 0 0 - - -;
#X obj 90 319 clip~ -0.5 0.5;
#X obj 90 217 sqrt~;
#X obj 91 285 *~;
#X obj 90 115 * -1;
#X text 141 182 <= basic ramp generator;
#X text 129 215 <= make non-linear;
#X text 123 352 <= index cosine wave;
#X connect 0 0 12 0;
#X connect 1 0 7 0;
#X connect 7 0 15 1;
#X connect 8 0 15 0;
#X connect 9 0 2 0;
#X connect 10 0 11 0;
#X connect 11 0 14 0;
#X connect 12 0 16 0;
#X connect 13 0 9 0;
#X connect 14 0 8 0;
#X connect 15 0 13 0;
#X connect 16 0 10 0;
#X restore 660 238 pd larynx;
#X obj 660 208 +;
#X floatatom 697 47 5 0 0 0 - - -;
#X obj 279 606 osc~;
#X text 235 -5 parameters;
#X obj 536 17 inlet;
#X obj 697 17 inlet;
#X text 521 -5 modulation;
#X text 693 -5 Fx_diff;
#X obj 697 280 == 0;
#X floatatom 697 362 5 0 0 0 - - -;
#X obj 697 308 swap 1;
#X obj 697 335 -;
#X obj 661 267 *~;
#X obj 212 674 delwrite~ delay_line 44100;
#X obj 408 674 delread~ delay_line;
#X floatatom 774 50 5 0 0 0 - - -;
#X obj 774 17 inlet;
#X text 747 -5 reverberation;
#X obj 557 674 delread~ delay_line;
#X obj 557 644 / 3;
#X obj 409 703 *~ 0.5;
#X obj 556 705 *~ 0.2;
#X obj 867 18 inlet;
#X text 848 -2 voice quality;
#X floatatom 867 47 5 0 0 0 - - -;
#X obj 565 133 swap 1;
#X floatatom 808 198 5 0 0 0 - - -;
#X floatatom 808 248 5 0 0 0 - - -;
#X obj 848 171 swap 1;
#X obj 848 196 -;
#X obj 553 242 *~;
#X obj 569 217 r voicing;
#X obj 750 482 *~;
#X obj 765 456 r frication;
#X obj 808 222 min;
#X obj 848 144 r whisper;
#X text 35 19 Holmes Formant Synthesiser;
#X connect 0 0 1 0;
#X connect 1 0 2 0;
#X connect 1 1 3 0;
#X connect 1 2 4 0;
#X connect 1 3 5 0;
#X connect 1 4 6 0;
#X connect 1 5 7 0;
#X connect 1 6 8 0;
#X connect 1 7 9 0;
#X connect 1 8 10 0;
#X connect 1 9 11 0;
#X connect 1 10 12 0;
#X connect 1 11 13 0;
#X connect 2 0 32 0;
#X connect 2 0 40 0;
#X connect 3 0 57 1;
#X connect 4 0 31 0;
#X connect 4 0 42 0;
#X connect 5 0 59 1;
#X connect 6 0 33 0;
#X connect 6 0 38 0;
#X connect 7 0 60 1;
#X connect 8 0 34 0;
#X connect 8 0 45 0;
#X connect 9 0 61 1;
#X connect 10 0 62 1;
#X connect 11 0 97 0;
#X connect 12 0 47 0;
#X connect 12 0 71 0;
#X connect 26 0 36 0;
#X connect 27 0 28 0;
#X connect 28 0 103 0;
#X connect 29 0 59 0;
#X connect 29 0 60 0;
#X connect 29 0 61 0;
#X connect 30 0 35 1;
#X connect 31 0 43 2;
#X connect 32 0 41 2;
#X connect 33 0 39 2;
#X connect 34 0 44 2;
#X connect 35 0 36 1;
#X connect 36 0 66 0;
#X connect 38 0 39 1;
#X connect 39 0 49 0;
#X connect 40 0 41 1;
#X connect 41 0 35 0;
#X connect 42 0 43 1;
#X connect 43 0 56 0;
#X connect 44 0 48 0;
#X connect 45 0 44 1;
#X connect 46 0 101 0;
#X connect 47 0 46 0;
#X connect 48 0 51 0;
#X connect 49 0 50 0;
#X connect 50 0 35 1;
#X connect 51 0 26 1;
#X connect 56 0 26 0;
#X connect 57 0 58 0;
#X connect 58 0 41 0;
#X connect 59 0 43 0;
#X connect 59 0 58 1;
#X connect 60 0 39 0;
#X connect 61 0 44 0;
#X connect 62 0 30 0;
#X connect 63 0 28 1;
#X connect 66 0 67 0;
#X connect 67 0 37 0;
#X connect 67 0 84 0;
#X connect 68 0 73 0;
#X connect 69 0 68 0;
#X connect 70 0 83 0;
#X connect 71 0 70 0;
#X connect 72 0 71 1;
#X connect 72 0 79 0;
#X connect 73 0 67 1;
#X connect 75 0 69 0;
#X connect 76 0 72 0;
#X connect 79 0 81 0;
#X connect 80 0 83 1;
#X connect 81 0 82 0;
#X connect 81 1 82 1;
#X connect 82 0 80 0;
#X connect 83 0 46 0;
#X connect 85 0 91 0;
#X connect 86 0 85 0;
#X connect 86 0 90 0;
#X connect 87 0 86 0;
#X connect 89 0 92 0;
#X connect 90 0 89 0;
#X connect 91 0 37 0;
#X connect 92 0 37 0;
#X connect 93 0 95 0;
#X connect 95 0 47 1;
#X connect 95 0 70 1;
#X connect 96 0 63 0;
#X connect 96 1 63 1;
#X connect 97 0 105 0;
#X connect 98 0 46 1;
#X connect 98 0 96 0;
#X connect 99 0 100 0;
#X connect 99 1 100 1;
#X connect 100 0 105 1;
#X connect 101 0 29 1;
#X connect 101 0 57 0;
#X connect 102 0 101 1;
#X connect 103 0 62 0;
#X connect 103 0 29 0;
#X connect 104 0 103 1;
#X connect 105 0 98 0;
#X connect 106 0 99 0;
#X restore 28 512 pd synth;
#X obj 128 192 tgl 15 0 empty empty empty 17 7 0 10 -262144 -1 -1 1
1;
#X text 151 190 Loop;
#N canvas 961 234 719 499 getparams 0;
#X obj 224 167 textfile;
#X msg 224 77 rewind;
#X obj 224 202 unpack 0 0 0 0 0 0 0 0 0 0 0 0;
#X floatatom 34 243 5 0 0 0 - - -;
#X floatatom 90 243 5 0 0 0 - - -;
#X floatatom 146 243 5 0 0 0 - - -;
#X floatatom 202 243 5 0 0 0 - - -;
#X floatatom 258 243 5 0 0 0 - - -;
#X floatatom 314 243 5 0 0 0 - - -;
#X floatatom 370 243 5 0 0 0 - - -;
#X floatatom 426 243 5 0 0 0 - - -;
#X floatatom 483 243 5 0 0 0 - - -;
#X floatatom 539 243 5 0 0 0 - - -;
#X floatatom 595 243 5 0 0 0 - - -;
#X floatatom 651 243 5 0 0 0 - - -;
#X obj 146 263 - 1;
#X obj 146 286 * 25;
#X obj 146 309 + 125;
#X floatatom 146 380 5 0 0 0 - - -;
#X obj 258 263 - 1;
#X floatatom 258 380 5 0 0 0 - - -;
#X obj 370 263 - 1;
#X floatatom 370 380 5 0 0 0 - - -;
#X obj 34 263 - 1;
#X floatatom 34 379 5 0 0 0 - - -;
#X obj 34 286 * 5;
#X obj 34 309 + 95;
#X obj 258 286 * 50;
#X obj 258 309 + 550;
#X obj 370 286 * 50;
#X obj 370 309 + 1350;
#X floatatom 90 380 5 0 0 0 - - -;
#X obj 90 263 - 63;
#X obj 90 286 / 20;
#X obj 90 333 pow;
#X msg 90 309 10;
#X floatatom 202 380 5 0 0 0 - - -;
#X obj 202 263 - 63;
#X obj 202 286 / 20;
#X obj 202 333 pow;
#X msg 202 309 10;
#X floatatom 314 380 5 0 0 0 - - -;
#X obj 314 263 - 63;
#X obj 314 286 / 20;
#X obj 314 333 pow;
#X msg 314 309 10;
#X floatatom 426 380 5 0 0 0 - - -;
#X obj 426 263 - 63;
#X obj 426 286 / 20;
#X obj 426 333 pow;
#X msg 426 309 10;
#X floatatom 595 380 5 0 0 0 - - -;
#X obj 595 333 pow;
#X obj 595 286 / 16;
#X msg 595 309 2;
#X floatatom 483 380 5 0 0 0 - - -;
#X obj 483 263 - 63;
#X obj 483 286 / 20;
#X obj 483 333 pow;
#X msg 483 309 10;
#X obj 595 357 * 25;
#X floatatom 539 380 5 0 0 0 - - -;
#X floatatom 651 380 5 0 0 0 - - -;
#X obj 232 418 pack 0 0 0 0 0 0 0 0 0 0 0 0;
#X obj 233 106 bng 15 250 50 0 empty empty empty 17 7 0 10 -262144
-1 -1;
#X msg 319 129 stop;
#X obj 224 54 bng 15 250 50 0 empty empty empty 17 7 0 10 -262144 -1
-1;
#X obj 233 130 metro 10;
#X obj 539 263 - 1;
#X obj 539 286 / 62;
#X obj 595 263 - 1;
#X text -9 1 Get PFS File;
#X text 198 -3 Process File;
#X msg 319 167 0 0 0 0 0 0 0 0 0 0 0 0;
#X obj 415 104 tgl 15 0 empty empty empty 17 7 0 10 -262144 -1 -1 1
1;
#X obj 376 129 spigot;
#X text 415 -6 Loop;
#X obj 330 80 t b b;
#X obj 224 21 inlet;
#X obj 232 450 outlet;
#X obj 415 24 inlet;
#X obj 511 24 inlet;
#X text 482 -5 Speaking Rate;
#X obj 621 27 inlet;
#X text 619 -1 Stop;
#X obj 610 430 + 1;
#X obj 568 430 int 0;
#X msg 595 406 0;
#X floatatom 568 452 5 0 0 0 - - -;
#X obj 568 475 s framecount;
#X obj 641 430 s reset;
#X text 508 199 convert from 1-63 coding scheme;
#X obj -6 26 loadbang;
#X msg -6 55 read The-owl-and-the-pussycat.pfs cr;
#X connect 0 0 2 0;
#X connect 0 1 77 0;
#X connect 1 0 0 0;
#X connect 1 0 64 0;
#X connect 2 0 3 0;
#X connect 2 1 4 0;
#X connect 2 2 5 0;
#X connect 2 3 6 0;
#X connect 2 4 7 0;
#X connect 2 5 8 0;
#X connect 2 6 9 0;
#X connect 2 7 10 0;
#X connect 2 8 11 0;
#X connect 2 9 12 0;
#X connect 2 10 13 0;
#X connect 2 11 14 0;
#X connect 3 0 23 0;
#X connect 4 0 32 0;
#X connect 5 0 15 0;
#X connect 6 0 37 0;
#X connect 7 0 19 0;
#X connect 8 0 42 0;
#X connect 9 0 21 0;
#X connect 10 0 47 0;
#X connect 11 0 56 0;
#X connect 12 0 68 0;
#X connect 13 0 70 0;
#X connect 14 0 62 0;
#X connect 15 0 16 0;
#X connect 16 0 17 0;
#X connect 17 0 18 0;
#X connect 18 0 63 2;
#X connect 19 0 27 0;
#X connect 20 0 63 4;
#X connect 21 0 29 0;
#X connect 22 0 63 6;
#X connect 23 0 25 0;
#X connect 24 0 63 0;
#X connect 25 0 26 0;
#X connect 26 0 24 0;
#X connect 27 0 28 0;
#X connect 28 0 20 0;
#X connect 29 0 30 0;
#X connect 30 0 22 0;
#X connect 31 0 63 1;
#X connect 32 0 33 0;
#X connect 33 0 34 1;
#X connect 33 0 35 0;
#X connect 34 0 31 0;
#X connect 35 0 34 0;
#X connect 36 0 63 3;
#X connect 37 0 38 0;
#X connect 38 0 39 1;
#X connect 38 0 40 0;
#X connect 39 0 36 0;
#X connect 40 0 39 0;
#X connect 41 0 63 5;
#X connect 42 0 43 0;
#X connect 43 0 44 1;
#X connect 43 0 45 0;
#X connect 44 0 41 0;
#X connect 45 0 44 0;
#X connect 46 0 63 7;
#X connect 47 0 48 0;
#X connect 48 0 49 1;
#X connect 48 0 50 0;
#X connect 49 0 46 0;
#X connect 50 0 49 0;
#X connect 51 0 63 10;
#X connect 52 0 60 0;
#X connect 53 0 52 1;
#X connect 53 0 54 0;
#X connect 54 0 52 0;
#X connect 55 0 63 8;
#X connect 56 0 57 0;
#X connect 57 0 58 1;
#X connect 57 0 59 0;
#X connect 58 0 55 0;
#X connect 59 0 58 0;
#X connect 60 0 51 0;
#X connect 61 0 63 9;
#X connect 62 0 63 11;
#X connect 63 0 79 0;
#X connect 64 0 67 0;
#X connect 64 0 87 0;
#X connect 65 0 67 0;
#X connect 65 0 73 0;
#X connect 65 0 75 0;
#X connect 66 0 1 0;
#X connect 67 0 0 0;
#X connect 67 0 86 0;
#X connect 68 0 69 0;
#X connect 69 0 61 0;
#X connect 70 0 53 0;
#X connect 73 0 2 0;
#X connect 74 0 75 1;
#X connect 75 0 1 0;
#X connect 77 0 75 0;
#X connect 77 1 65 0;
#X connect 78 0 66 0;
#X connect 80 0 74 0;
#X connect 81 0 67 1;
#X connect 83 0 65 0;
#X connect 85 0 86 1;
#X connect 86 0 85 0;
#X connect 86 0 88 0;
#X connect 87 0 86 1;
#X connect 87 0 90 0;
#X connect 88 0 89 0;
#X connect 92 0 93 0;
#X connect 93 0 0 0;
#X restore 28 395 pd getparams;
#N canvas 892 258 990 517 convert 0;
#X floatatom 156 415 5 0 0 0 - - -;
#X floatatom 268 415 5 0 0 0 - - -;
#X floatatom 380 415 5 0 0 0 - - -;
#X floatatom 44 414 5 0 0 0 - - -;
#X floatatom 100 415 5 0 0 0 - - -;
#X floatatom 212 415 5 0 0 0 - - -;
#X floatatom 324 415 5 0 0 0 - - -;
#X floatatom 436 415 5 0 0 0 - - -;
#X floatatom 605 415 5 0 0 0 - - -;
#X floatatom 493 415 5 0 0 0 - - -;
#X floatatom 549 415 5 0 0 0 - - -;
#X floatatom 661 415 5 0 0 0 - - -;
#X obj 242 453 pack 0 0 0 0 0 0 0 0 0 0 0 0;
#X obj 242 485 outlet;
#X obj 234 27 inlet;
#X obj 234 55 unpack 0 0 0 0 0 0 0 0 0 0 0 0;
#X floatatom 44 96 5 0 0 0 - - -;
#X floatatom 100 96 5 0 0 0 - - -;
#X floatatom 156 96 5 0 0 0 - - -;
#X floatatom 212 96 5 0 0 0 - - -;
#X floatatom 268 96 5 0 0 0 - - -;
#X floatatom 324 96 5 0 0 0 - - -;
#X floatatom 380 96 5 0 0 0 - - -;
#X floatatom 436 96 5 0 0 0 - - -;
#X floatatom 493 96 5 0 0 0 - - -;
#X floatatom 549 96 5 0 0 0 - - -;
#X floatatom 605 96 5 0 0 0 - - -;
#X floatatom 661 96 5 0 0 0 - - -;
#X text 54 115 FN;
#X text 110 115 ALF;
#X text 165 115 F1;
#X text 220 115 A1;
#X text 278 115 F2;
#X text 334 115 A2;
#X text 389 115 F3;
#X text 444 115 A3;
#X text 503 115 AHF;
#X text 560 115 V;
#X text 617 115 F0;
#X text 672 115 MS;
#X obj 605 329 +;
#X obj 605 275 *;
#X floatatom 612 51 5 0 0 0 - - -;
#X floatatom 661 53 5 0 0 0 - - -;
#X floatatom 526 51 5 0 0 0 - - -;
#X obj 156 389 *;
#X obj 268 386 *;
#X obj 380 388 *;
#X text 218 2 parameters;
#X obj 526 27 inlet;
#X obj 612 27 inlet;
#X obj 661 27 inlet;
#X text 600 2 Fx range;
#X text 528 3 VTLN;
#X text 651 2 Fx shift;
#X obj 739 28 inlet;
#X text 734 1 diction;
#X floatatom 739 79 5 0 0 0 - - -;
#X obj 739 103 swap 1;
#X obj 739 126 -;
#X floatatom 739 170 5 0 0 0 - - -;
#X obj 268 332 *;
#X obj 268 355 +;
#X obj 298 355 *;
#X obj 156 332 *;
#X obj 156 355 +;
#X obj 186 355 *;
#X obj 380 331 *;
#X obj 380 354 +;
#X obj 410 354 *;
#X obj 739 148 max 0;
#X obj 739 53 min 1;
#X obj 804 30 inlet;
#X text 798 1 accent;
#X floatatom 804 56 5 0 0 0 - - -;
#X obj 722 291 +;
#X obj 750 291 int;
#X floatatom 722 312 5 0 0 0 - - -;
#X obj 722 332 /;
#X floatatom 722 354 5 0 0 0 - - -;
#X obj 737 269 r reset;
#X obj 759 311 r framecount;
#X obj 804 146 cos;
#X floatatom 804 169 5 0 0 0 - - -;
#X floatatom 842 169 5 0 0 0 - - -;
#X obj 842 146 sin;
#X obj 156 134 -;
#X obj 156 305 +;
#X obj 846 291 +;
#X obj 874 291 int;
#X floatatom 846 312 5 0 0 0 - - -;
#X obj 846 332 /;
#X floatatom 846 354 5 0 0 0 - - -;
#X obj 861 269 r reset;
#X obj 883 311 r framecount;
#X obj 268 134 -;
#X obj 268 305 +;
#X obj 156 243 *;
#X obj 186 243 *;
#X obj 156 271 +;
#X obj 268 242 *;
#X obj 298 242 *;
#X obj 268 270 +;
#X text 753 376 F1/F2 averages;
#X connect 0 0 12 2;
#X connect 1 0 12 4;
#X connect 2 0 12 6;
#X connect 3 0 12 0;
#X connect 4 0 12 1;
#X connect 5 0 12 3;
#X connect 6 0 12 5;
#X connect 7 0 12 7;
#X connect 8 0 12 10;
#X connect 9 0 12 8;
#X connect 10 0 12 9;
#X connect 11 0 12 11;
#X connect 12 0 13 0;
#X connect 14 0 15 0;
#X connect 15 0 16 0;
#X connect 15 1 17 0;
#X connect 15 2 18 0;
#X connect 15 3 19 0;
#X connect 15 4 20 0;
#X connect 15 5 21 0;
#X connect 15 6 22 0;
#X connect 15 7 23 0;
#X connect 15 8 24 0;
#X connect 15 9 25 0;
#X connect 15 10 26 0;
#X connect 15 11 27 0;
#X connect 16 0 3 0;
#X connect 17 0 4 0;
#X connect 18 0 75 0;
#X connect 18 0 86 0;
#X connect 19 0 5 0;
#X connect 20 0 88 0;
#X connect 20 0 95 0;
#X connect 21 0 6 0;
#X connect 22 0 67 0;
#X connect 23 0 7 0;
#X connect 24 0 9 0;
#X connect 25 0 10 0;
#X connect 26 0 41 0;
#X connect 27 0 11 0;
#X connect 40 0 8 0;
#X connect 41 0 40 0;
#X connect 42 0 41 1;
#X connect 43 0 40 1;
#X connect 44 0 45 1;
#X connect 44 0 46 1;
#X connect 44 0 47 1;
#X connect 45 0 0 0;
#X connect 46 0 1 0;
#X connect 47 0 2 0;
#X connect 49 0 44 0;
#X connect 50 0 42 0;
#X connect 51 0 43 0;
#X connect 55 0 71 0;
#X connect 57 0 58 0;
#X connect 57 0 61 1;
#X connect 57 0 64 1;
#X connect 57 0 67 1;
#X connect 58 0 59 0;
#X connect 58 1 59 1;
#X connect 59 0 70 0;
#X connect 60 0 63 1;
#X connect 60 0 66 1;
#X connect 60 0 69 1;
#X connect 61 0 62 0;
#X connect 62 0 63 0;
#X connect 62 0 46 0;
#X connect 63 0 62 1;
#X connect 64 0 65 0;
#X connect 65 0 66 0;
#X connect 65 0 45 0;
#X connect 66 0 65 1;
#X connect 67 0 68 0;
#X connect 68 0 69 0;
#X connect 68 0 47 0;
#X connect 69 0 68 1;
#X connect 70 0 60 0;
#X connect 71 0 57 0;
#X connect 72 0 74 0;
#X connect 74 0 82 0;
#X connect 74 0 85 0;
#X connect 75 0 76 0;
#X connect 75 0 77 0;
#X connect 76 0 75 1;
#X connect 77 0 78 0;
#X connect 78 0 79 0;
#X connect 79 0 86 1;
#X connect 79 0 87 1;
#X connect 80 0 75 1;
#X connect 81 0 78 1;
#X connect 82 0 83 0;
#X connect 83 0 97 1;
#X connect 83 0 100 1;
#X connect 84 0 98 1;
#X connect 84 0 101 1;
#X connect 85 0 84 0;
#X connect 86 0 97 0;
#X connect 86 0 101 0;
#X connect 87 0 64 0;
#X connect 88 0 89 0;
#X connect 88 0 90 0;
#X connect 89 0 88 1;
#X connect 90 0 91 0;
#X connect 91 0 92 0;
#X connect 92 0 96 1;
#X connect 92 0 95 1;
#X connect 93 0 88 1;
#X connect 94 0 91 1;
#X connect 95 0 98 0;
#X connect 95 0 100 0;
#X connect 96 0 61 0;
#X connect 97 0 99 0;
#X connect 98 0 99 1;
#X connect 99 0 87 0;
#X connect 100 0 102 0;
#X connect 101 0 102 1;
#X connect 102 0 96 0;
#X restore 28 455 pd convert;
#X msg 475 47 10;
#X msg 747 49 1;
#X msg 345 45 0;
#X msg 307 45 1;
#X msg 674 48 0;
#X msg 710 48 0;
#X obj 899 -84 bng 15 250 50 0 empty empty empty 17 7 0 10 -262144
-1 -1;
#X obj 899 -113 loadbang;
#X obj 273 153 hsl 128 15 0 1 0 0 empty empty Loudness -2 -8 0 10 -262144
-1 -1 6350 1;
#X obj 273 188 hsl 128 15 0 4 0 0 empty empty Inflection -2 -8 0 10
-262144 -1 -1 3175 1;
#X obj 273 223 hsl 128 15 -200 200 0 0 empty empty Note -2 -8 0 10
-262144 -1 -1 6350 1;
#X obj 273 258 hsl 128 15 5 50 1 0 empty empty Tone -2 -8 0 10 -262144
-1 -1 3823 1;
#X obj 478 153 hsl 128 15 50 5 1 0 empty empty Pace -2 -8 0 10 -262144
-1 -1 8877 1;
#X obj 478 188 hsl 128 15 -3.142 3.142 0 0 empty empty Accent -2 -8
0 10 -262144 -1 -1 6350 1;
#X obj 478 223 hsl 128 15 0.1 1 1 0 empty empty Diction -2 -8 0 10
-262144 -1 -1 12700 1;
#X obj 677 153 hsl 128 15 0.5 2 0 0 empty empty Vocal_Tract_Length
-2 -8 0 10 -262144 -1 -1 4233 1;
#X obj 27 549 *~;
#X msg 270 45 0.5;
#X text 151 155 Speak;
#X obj 939 -35 send pd;
#X msg 939 -56 dsp 1;
#X obj 18 583 dac~;
#X obj 613 153 bng 15 250 50 0 empty empty empty 17 7 0 10 -262144
-1 -1;
#X obj 613 188 bng 15 250 50 0 empty empty empty 17 7 0 10 -262144
-1 -1;
#X obj 613 223 bng 15 250 50 0 empty empty empty 17 7 0 10 -262144
-1 -1;
#X obj 812 153 bng 15 250 50 0 empty empty empty 17 7 0 10 -262144
-1 -1;
#X obj 408 153 bng 15 250 50 0 empty empty empty 17 7 0 10 -262144
-1 -1;
#X obj 408 188 bng 15 250 50 0 empty empty empty 17 7 0 10 -262144
-1 -1;
#X obj 408 223 bng 15 250 50 0 empty empty empty 17 7 0 10 -262144
-1 -1;
#X obj 408 258 bng 15 250 50 0 empty empty empty 17 7 0 10 -262144
-1 -1;
#X obj 128 157 bng 15 250 50 0 empty empty empty 17 7 0 10 -262144
-1 -1;
#X obj 128 227 bng 15 250 50 0 empty empty empty 17 7 0 10 -262144
-1 -1;
#X obj 833 283 bng 15 250 50 0 empty empty empty 17 7 0 10 -262144
-1 -1;
#X text 773 282 Reset All;
#X obj 677 188 hsl 128 15 0 50 0 0 empty empty Larynx_Modulation -2
-8 0 10 -262144 -1 -1 0 1;
#X obj 677 223 hsl 128 15 -100 100 0 0 empty empty Dual_Larynx -2 -8
0 10 -262144 -1 -1 6350 1;
#X obj 677 258 hsl 128 15 0 200 0 0 empty empty Reverberation -2 -8
0 10 -262144 -1 -1 0 1;
#X obj 812 188 bng 15 250 50 0 empty empty empty 17 7 0 10 -262144
-1 -1;
#X obj 812 223 bng 15 250 50 0 empty empty empty 17 7 0 10 -262144
-1 -1;
#X obj 812 258 bng 15 250 50 0 empty empty empty 17 7 0 10 -262144
-1 -1;
#X msg 787 48 0;
#X msg 381 45 10;
#X msg 562 47 1;
#X obj 475 258 tgl 15 0 empty empty empty 17 7 0 10 -262144 -1 -1 1
1;
#X obj 521 258 tgl 15 0 empty empty empty 17 7 0 10 -262144 -1 -1 1
1;
#X obj 566 258 tgl 15 0 empty empty empty 17 7 0 10 -262144 -1 -1 0
1;
#X text 474 241 Specials;
#X msg 515 47 0;
#X text 151 226 Stop/Restart;
#X obj 475 372 s voicing;
#X msg 601 47 1;
#X obj 521 342 s frication;
#X obj 613 258 bng 15 250 50 0 empty empty empty 17 7 0 10 -262144
-1 -1;
#X obj 566 311 s whisper;
#X msg 634 46 0;
#X text 492 256 V;
#X text 583 256 WH;
#X text 538 256 F;
#X text 110 394 <= get parameters from file;
#X text 103 452 <= perform conversions;
#X text 92 511 <= synthesise the speech;
#X text 152 44 preset values =>;
#X connect 0 0 21 0;
#X connect 1 0 3 1;
#X connect 3 0 4 0;
#X connect 4 0 0 0;
#X connect 5 0 17 0;
#X connect 6 0 20 0;
#X connect 7 0 15 0;
#X connect 8 0 14 0;
#X connect 8 0 1 0;
#X connect 9 0 39 0;
#X connect 10 0 40 0;
#X connect 11 0 5 0;
#X connect 11 0 6 0;
#X connect 11 0 8 0;
#X connect 11 0 7 0;
#X connect 11 0 9 0;
#X connect 11 0 10 0;
#X connect 11 0 22 0;
#X connect 11 0 25 0;
#X connect 11 0 45 0;
#X connect 11 0 46 0;
#X connect 11 0 47 0;
#X connect 11 0 52 0;
#X connect 11 0 55 0;
#X connect 11 0 59 0;
#X connect 12 0 11 0;
#X connect 13 0 21 1;
#X connect 14 0 4 2;
#X connect 15 0 4 3;
#X connect 16 0 0 4;
#X connect 17 0 3 2;
#X connect 18 0 4 5;
#X connect 19 0 4 4;
#X connect 20 0 4 1;
#X connect 21 0 26 0;
#X connect 21 0 26 1;
#X connect 22 0 13 0;
#X connect 25 0 24 0;
#X connect 27 0 5 0;
#X connect 28 0 52 0;
#X connect 29 0 47 0;
#X connect 30 0 6 0;
#X connect 31 0 22 0;
#X connect 32 0 8 0;
#X connect 33 0 7 0;
#X connect 34 0 46 0;
#X connect 35 0 3 0;
#X connect 36 0 3 3;
#X connect 37 0 11 0;
#X connect 39 0 0 1;
#X connect 40 0 0 2;
#X connect 41 0 0 3;
#X connect 42 0 9 0;
#X connect 43 0 10 0;
#X connect 44 0 45 0;
#X connect 45 0 41 0;
#X connect 46 0 16 0;
#X connect 47 0 19 0;
#X connect 48 0 54 0;
#X connect 49 0 56 0;
#X connect 50 0 58 0;
#X connect 52 0 18 0;
#X connect 55 0 48 0;
#X connect 55 0 49 0;
#X connect 57 0 55 0;
#X connect 57 0 59 0;
#X connect 59 0 50 0;
#X coords 0 -1 1 1 750 200 2 100 100;
#X restore -3 -44 pd LINT-PADS;
#X text 626 -67 (C) Roger K. Moore;
